<?xml version="1.0" encoding="UTF-8"?>
<svg xmlns="http://www.w3.org/2000/svg" xmlns:xlink="http://www.w3.org/1999/xlink" width="30px" height="30px" viewBox="0 0 30 30" version="1.1">
<g id="surface1">
<path style=" stroke:none;fill-rule:nonzero;fill:rgb(95.686275%,69.803923%,69.01961%);fill-opacity:1;" d="M 6.703125 12.933594 L 22.804688 12.933594 L 22.804688 29.160156 L 6.703125 29.160156 Z M 6.703125 12.933594 "/>
<path style=" stroke:none;fill-rule:nonzero;fill:rgb(70.19608%,25.098041%,29.019609%);fill-opacity:1;" d="M 10.707031 24.746094 C 10.246094 24.746094 9.867188 24.367188 9.867188 23.90625 L 9.867188 18.539062 C 9.867188 18.074219 10.246094 17.699219 10.707031 17.699219 C 11.171875 17.699219 11.546875 18.074219 11.546875 18.539062 L 11.546875 23.90625 C 11.546875 24.367188 11.171875 24.746094 10.707031 24.746094 Z M 10.707031 24.746094 "/>
<path style=" stroke:none;fill-rule:nonzero;fill:rgb(70.19608%,25.098041%,29.019609%);fill-opacity:1;" d="M 14.753906 24.746094 C 14.292969 24.746094 13.914062 24.367188 13.914062 23.90625 L 13.914062 18.539062 C 13.914062 18.074219 14.292969 17.699219 14.753906 17.699219 C 15.21875 17.699219 15.59375 18.074219 15.59375 18.539062 L 15.59375 23.90625 C 15.59375 24.367188 15.21875 24.746094 14.753906 24.746094 Z M 14.753906 24.746094 "/>
<path style=" stroke:none;fill-rule:nonzero;fill:rgb(70.19608%,25.098041%,29.019609%);fill-opacity:1;" d="M 18.800781 24.746094 C 18.335938 24.746094 17.960938 24.367188 17.960938 23.90625 L 17.960938 18.539062 C 17.960938 18.074219 18.335938 17.699219 18.800781 17.699219 C 19.265625 17.699219 19.640625 18.074219 19.640625 18.539062 L 19.640625 23.90625 C 19.640625 24.367188 19.265625 24.746094 18.800781 24.746094 Z M 18.800781 24.746094 "/>
<path style=" stroke:none;fill-rule:nonzero;fill:rgb(70.19608%,25.098041%,29.019609%);fill-opacity:1;" d="M 25.464844 7.964844 C 24.96875 7.191406 24.203125 6.652344 23.304688 6.453125 C 22.851562 6.351562 22.402344 6.636719 22.304688 7.089844 C 22.203125 7.542969 22.488281 7.988281 22.941406 8.089844 C 23.402344 8.191406 23.792969 8.46875 24.046875 8.867188 C 24.300781 9.265625 24.386719 9.738281 24.28125 10.199219 L 23.847656 12.15625 L 5.835938 8.15625 L 6.269531 6.199219 C 6.484375 5.246094 7.429688 4.644531 8.378906 4.855469 L 16.886719 6.746094 C 17.339844 6.847656 17.789062 6.5625 17.890625 6.109375 C 17.988281 5.65625 17.703125 5.210938 17.253906 5.109375 L 12.421875 4.035156 L 12.910156 1.839844 L 20.113281 3.4375 L 19.445312 6.453125 C 19.34375 6.90625 19.628906 7.355469 20.082031 7.457031 C 20.140625 7.46875 20.203125 7.476562 20.265625 7.476562 C 20.648438 7.476562 20.996094 7.210938 21.082031 6.820312 L 21.933594 2.984375 C 21.980469 2.765625 21.941406 2.539062 21.820312 2.351562 C 21.703125 2.164062 21.511719 2.03125 21.296875 1.984375 L 12.453125 0.0195312 C 12.003906 -0.0820312 11.554688 0.203125 11.453125 0.65625 L 10.785156 3.671875 L 8.746094 3.21875 C 6.890625 2.808594 5.046875 3.980469 4.632812 5.835938 L 4.015625 8.613281 C 3.917969 9.066406 4.203125 9.511719 4.652344 9.613281 L 15.824219 12.09375 L 6.703125 12.09375 C 6.238281 12.09375 5.863281 12.46875 5.863281 12.933594 L 5.863281 29.160156 C 5.863281 29.625 6.238281 30 6.703125 30 L 22.804688 30 C 23.269531 30 23.644531 29.625 23.644531 29.160156 L 23.644531 13.832031 L 24.304688 13.976562 C 24.363281 13.992188 24.425781 13.996094 24.484375 13.996094 C 24.644531 13.996094 24.800781 13.953125 24.933594 13.867188 C 25.121094 13.746094 25.253906 13.558594 25.304688 13.339844 L 25.921875 10.5625 C 26.121094 9.664062 25.957031 8.742188 25.464844 7.964844 Z M 21.96875 28.324219 L 7.542969 28.324219 L 7.542969 13.773438 L 21.96875 13.773438 Z M 21.96875 28.324219 "/>
</g>
</svg>
