<?xml version="1.0" encoding="UTF-8"?>
<svg xmlns="http://www.w3.org/2000/svg" xmlns:xlink="http://www.w3.org/1999/xlink" width="30px" height="30px" viewBox="0 0 30 30" version="1.1">
<g id="surface1">
<path style=" stroke:none;fill-rule:nonzero;fill:rgb(21.176471%,53.333336%,100%);fill-opacity:1;" d="M 24.121094 27.503906 L 6.71875 27.503906 C 4.625 27.503906 2.917969 25.796875 2.917969 23.703125 L 2.917969 6.300781 C 2.917969 4.203125 4.625 2.5 6.71875 2.5 L 15.421875 2.5 C 16.113281 2.5 16.671875 3.058594 16.671875 3.75 C 16.671875 4.441406 16.113281 5 15.421875 5 L 6.71875 5 C 6.003906 5 5.417969 5.585938 5.417969 6.300781 L 5.417969 23.703125 C 5.417969 24.417969 6.003906 25 6.71875 25 L 24.121094 25 C 24.835938 25 25.421875 24.417969 25.421875 23.703125 L 25.421875 15 C 25.421875 14.308594 25.980469 13.75 26.671875 13.75 C 27.363281 13.75 27.921875 14.308594 27.921875 15 L 27.921875 23.703125 C 27.921875 25.796875 26.21875 27.503906 24.121094 27.503906 Z M 24.121094 27.503906 "/>
<path style=" stroke:none;fill-rule:nonzero;fill:rgb(37.254903%,38.82353%,47.450981%);fill-opacity:1;" d="M 14.148438 22.164062 C 14.097656 22.164062 14.046875 22.160156 13.996094 22.15625 L 10.054688 21.664062 C 9.484375 21.59375 9.039062 21.144531 8.96875 20.578125 L 8.476562 16.636719 C 8.429688 16.253906 8.5625 15.871094 8.835938 15.597656 L 19.8125 4.625 C 21.308594 3.125 23.742188 3.125 25.238281 4.625 L 26.007812 5.394531 C 26.734375 6.117188 27.132812 7.082031 27.132812 8.109375 C 27.132812 9.136719 26.734375 10.097656 26.007812 10.824219 L 15.035156 21.796875 C 14.796875 22.035156 14.480469 22.164062 14.152344 22.164062 Z M 11.328125 19.300781 L 13.695312 19.597656 L 24.238281 9.054688 C 24.488281 8.804688 24.628906 8.464844 24.628906 8.109375 C 24.628906 7.75 24.488281 7.414062 24.238281 7.164062 L 23.46875 6.390625 C 22.941406 5.871094 22.09375 5.871094 21.574219 6.390625 L 11.03125 16.933594 Z M 11.328125 19.300781 "/>
</g>
</svg>
