<?xml version="1.0" encoding="UTF-8"?>
<svg xmlns="http://www.w3.org/2000/svg" xmlns:xlink="http://www.w3.org/1999/xlink" width="30px" height="30px" viewBox="0 0 30 30" version="1.1">
<g id="surface1">
<path style=" stroke:none;fill-rule:nonzero;fill:rgb(90.588236%,91.37255%,91.37255%);fill-opacity:1;" d="M 29.289062 12.539062 C 27.238281 7.4375 20.707031 3.125 15 3.125 C 9.292969 3.125 2.699219 7.5 0.707031 12.675781 C 0.59375 12.964844 0.59375 13.285156 0.707031 13.574219 C 2.699219 18.75 9.257812 23.125 15 23.125 C 20.742188 23.125 27.210938 18.8125 29.261719 13.710938 C 29.328125 13.566406 29.367188 13.410156 29.375 13.25 L 29.375 13 C 29.375 12.839844 29.34375 12.683594 29.289062 12.539062 Z M 29.289062 12.539062 "/>
<path style=" stroke:none;fill-rule:nonzero;fill:rgb(13.725491%,12.156863%,12.54902%);fill-opacity:1;" d="M 18.125 13.125 C 18.125 11.398438 16.726562 10 15 10 C 13.273438 10 11.875 11.398438 11.875 13.125 C 11.875 14.851562 13.273438 16.25 15 16.25 C 16.726562 16.25 18.125 14.851562 18.125 13.125 Z M 18.125 13.125 "/>
<path style=" stroke:none;fill-rule:nonzero;fill:rgb(30.19608%,74.509805%,52.549022%);fill-opacity:1;" d="M 15 18.75 C 11.894531 18.75 9.375 16.230469 9.375 13.125 C 9.375 10.019531 11.894531 7.5 15 7.5 C 18.105469 7.5 20.625 10.019531 20.625 13.125 C 20.625 16.230469 18.105469 18.75 15 18.75 Z M 15 10 C 13.273438 10 11.875 11.398438 11.875 13.125 C 11.875 14.851562 13.273438 16.25 15 16.25 C 16.726562 16.25 18.125 14.851562 18.125 13.125 C 18.125 11.398438 16.726562 10 15 10 Z M 15 10 "/>
<path style=" stroke:none;fill-rule:nonzero;fill:rgb(100%,100%,100%);fill-opacity:1;" d="M 13.75 11.25 C 13.75 10.558594 13.191406 10 12.5 10 C 11.808594 10 11.25 10.558594 11.25 11.25 C 11.25 11.941406 11.808594 12.5 12.5 12.5 C 13.191406 12.5 13.75 11.941406 13.75 11.25 Z M 13.75 11.25 "/>
</g>
</svg>
